<svg width="24" height="24" viewBox="0 0 24 24" fill="none" xmlns="http://www.w3.org/2000/svg">
<g filter="url(#filter0_i_177_411)">
<path fill-rule="evenodd" clip-rule="evenodd" d="M4.45428 16.5152C4.66522 16.7259 4.95116 16.8731 5.24928 16.8731C5.54741 16.8731 5.54283 16.8731 6.04428 16.8731L11.9993 16.8731L17.9543 16.8731C18.181 16.8731 18.1985 16.8731 18.3195 16.8731C18.4404 16.8731 18.6064 16.8704 18.7575 16.8731C18.9086 16.8758 19.0586 16.848 19.1987 16.7914C19.3388 16.7348 19.466 16.6506 19.5728 16.5438C19.6797 16.4369 19.7639 16.3097 19.8205 16.1696C19.877 16.0295 19.9048 15.8795 19.9022 15.7284C19.8995 15.5774 19.8664 15.4284 19.805 15.2904C19.7435 15.1524 19.6548 15.0282 19.5443 14.9252L12.7943 8.1752C12.5833 7.96453 12.2974 7.84619 11.9993 7.84619C11.7012 7.84619 11.4152 7.96453 11.2043 8.1752L4.45428 14.9252C4.24361 15.1361 4.12527 15.4221 4.12527 15.7202C4.12527 16.0183 4.24361 16.3043 4.45428 16.5152Z" fill="url(#paint0_linear_177_411)"/>
</g>
<defs>
<filter id="filter0_i_177_411" x="4.12524" y="5.84619" width="15.7771" height="11.0269" filterUnits="userSpaceOnUse" color-interpolation-filters="sRGB">
<feFlood flood-opacity="0" result="BackgroundImageFix"/>
<feBlend mode="normal" in="SourceGraphic" in2="BackgroundImageFix" result="shape"/>
<feColorMatrix in="SourceAlpha" type="matrix" values="0 0 0 0 0 0 0 0 0 0 0 0 0 0 0 0 0 0 127 0" result="hardAlpha"/>
<feOffset dy="-3"/>
<feGaussianBlur stdDeviation="1"/>
<feComposite in2="hardAlpha" operator="arithmetic" k2="-1" k3="1"/>
<feColorMatrix type="matrix" values="0 0 0 0 0.00392157 0 0 0 0 0.0352941 0 0 0 0 0.0509804 0 0 0 0.25 0"/>
<feBlend mode="normal" in2="shape" result="effect1_innerShadow_177_411"/>
</filter>
<linearGradient id="paint0_linear_177_411" x1="12.6449" y1="10.5781" x2="12.6256" y2="15.4485" gradientUnits="userSpaceOnUse">
<stop stop-color="#FDBA06"/>
<stop offset="1" stop-color="#DC7D00"/>
</linearGradient>
</defs>
</svg>
