<svg width="24" height="24" viewBox="0 0 24 24" fill="none" xmlns="http://www.w3.org/2000/svg">
<g filter="url(#filter0_i_177_416)">
<path fill-rule="evenodd" clip-rule="evenodd" d="M4.45428 8.20404C4.66522 7.99336 4.95116 7.84615 5.24928 7.84615C5.54741 7.84615 5.54283 7.84615 6.04428 7.84615L11.9993 7.84615L17.9543 7.84615C18.181 7.84615 18.1985 7.84615 18.3195 7.84615C18.4404 7.84615 18.6064 7.84882 18.7575 7.84615C18.9086 7.84349 19.0586 7.87127 19.1987 7.92785C19.3388 7.98444 19.466 8.06865 19.5728 8.17548C19.6797 8.28231 19.7639 8.40956 19.8205 8.54964C19.877 8.68972 19.9048 8.83977 19.9022 8.99082C19.8995 9.14188 19.8664 9.29085 19.805 9.42885C19.7435 9.56684 19.6548 9.69104 19.5443 9.79404L12.7943 16.544C12.5833 16.7547 12.2974 16.873 11.9993 16.873C11.7012 16.873 11.4152 16.7547 11.2043 16.544L4.45428 9.79404C4.24361 9.5831 4.12527 9.29716 4.12527 8.99904C4.12527 8.70091 4.24361 8.41498 4.45428 8.20404Z" fill="url(#paint0_linear_177_416)"/>
</g>
<defs>
<filter id="filter0_i_177_416" x="4.12524" y="5.84619" width="15.7771" height="11.0269" filterUnits="userSpaceOnUse" color-interpolation-filters="sRGB">
<feFlood flood-opacity="0" result="BackgroundImageFix"/>
<feBlend mode="normal" in="SourceGraphic" in2="BackgroundImageFix" result="shape"/>
<feColorMatrix in="SourceAlpha" type="matrix" values="0 0 0 0 0 0 0 0 0 0 0 0 0 0 0 0 0 0 127 0" result="hardAlpha"/>
<feOffset dy="-3"/>
<feGaussianBlur stdDeviation="1"/>
<feComposite in2="hardAlpha" operator="arithmetic" k2="-1" k3="1"/>
<feColorMatrix type="matrix" values="0 0 0 0 0.00392157 0 0 0 0 0.0352941 0 0 0 0 0.0509804 0 0 0 0.25 0"/>
<feBlend mode="normal" in2="shape" result="effect1_innerShadow_177_416"/>
</filter>
<linearGradient id="paint0_linear_177_416" x1="12.6449" y1="14.1412" x2="12.6256" y2="9.27075" gradientUnits="userSpaceOnUse">
<stop stop-color="#FDBA06"/>
<stop offset="1" stop-color="#DC7D00"/>
</linearGradient>
</defs>
</svg>
