<svg width="16" height="16" viewBox="0 0 16 16" fill="none" xmlns="http://www.w3.org/2000/svg">
<g clip-path="url(#clip0_177_47)">
<mask id="mask0_177_47" style="mask-type:luminance" maskUnits="userSpaceOnUse" x="-1" y="0" width="17" height="16">
<path d="M7.99072 16C12.409 16 15.9907 12.4183 15.9907 8C15.9907 3.58172 12.409 0 7.99072 0C3.57244 0 -0.00927734 3.58172 -0.00927734 8C-0.00927734 12.4183 3.57244 16 7.99072 16Z" fill="white"/>
</mask>
<g mask="url(#mask0_177_47)">
<path d="M7.99072 0H15.9907V2L14.9907 3L15.9907 4V6L14.9907 7L15.9907 8V10L14.9907 11L15.9907 12V14L7.99072 15L-0.00927734 14V12L0.990723 11L-0.00927734 10V8L7.99072 0Z" fill="#EEEEEE"/>
<path d="M6.99072 2H15.9907V4H6.99072V2ZM6.99072 6H15.9907V8H7.99072L6.99072 6ZM-0.00927734 10H15.9907V12H-0.00927734V10ZM-0.00927734 14H15.9907V16H-0.00927734V14Z" fill="#CC3939"/>
<path d="M-0.00927734 0H7.99072V8H-0.00927734V0Z" fill="#1657A5"/>
<path d="M5.83447 7.59375L7.61572 6.3125H5.42822L7.20947 7.59375L6.52197 5.5L5.83447 7.59375ZM3.30322 7.59375L5.08447 6.3125H2.89697L4.67822 7.59375L3.99072 5.5L3.30322 7.59375ZM0.771973 7.59375L2.55322 6.3125H0.365723L2.14697 7.59375L1.45947 5.5L0.771973 7.59375ZM5.83447 5.0625L7.61572 3.78125H5.42822L7.20947 5.0625L6.52197 2.96875L5.83447 5.0625ZM3.30322 5.0625L5.08447 3.78125H2.89697L4.67822 5.0625L3.99072 2.96875L3.30322 5.0625ZM0.771973 5.0625L2.55322 3.78125H0.365723L2.14697 5.0625L1.45947 2.96875L0.771973 5.0625ZM5.83447 2.5L7.61572 1.21875H5.42822L7.20947 2.5L6.52197 0.40625L5.83447 2.5ZM3.30322 2.5L5.08447 1.21875H2.89697L4.67822 2.5L3.99072 0.40625L3.30322 2.5ZM0.771973 2.5L2.55322 1.21875H0.365723L2.14697 2.5L1.45947 0.40625L0.771973 2.5Z" fill="#EEEEEE"/>
</g>
</g>
<defs>
<clipPath id="clip0_177_47">
<rect x="-0.00927734" width="16" height="16" rx="8" fill="white"/>
</clipPath>
</defs>
</svg>
