<svg width="14" height="13" viewBox="0 0 14 13" fill="none" xmlns="http://www.w3.org/2000/svg">
<g clip-path="url(#clip0_189_2472)">
<path d="M7.00439 13.0044C10.4814 13.0044 13.3 10.1857 13.3 6.70874C13.3 3.23175 10.4814 0.413086 7.00439 0.413086C3.5274 0.413086 0.70874 3.23175 0.70874 6.70874C0.70874 10.1857 3.5274 13.0044 7.00439 13.0044Z" fill="#26A17B"/>
<path fill-rule="evenodd" clip-rule="evenodd" d="M7.76075 7.25291V7.25212C7.71747 7.25527 7.49436 7.26865 6.99661 7.26865C6.5992 7.26865 6.31944 7.25685 6.22107 7.25212V7.2533C4.69122 7.18602 3.54935 6.91964 3.54935 6.60092C3.54935 6.2822 4.69122 6.01621 6.22107 5.94774V6.9881C6.32101 6.99518 6.60746 7.0121 7.0033 7.0121C7.47823 7.0121 7.71629 6.99243 7.76075 6.98849V5.94853C9.28744 6.0166 10.4266 6.28299 10.4266 6.60092C10.4266 6.91964 9.28744 7.18523 7.76075 7.25291ZM7.76075 5.84032V4.90935H9.89104V3.48969H4.09078V4.90935H6.22107V5.83993C4.48976 5.91941 3.18774 6.26253 3.18774 6.67332C3.18774 7.08411 4.48976 7.42683 6.22107 7.5067V10.4901H7.76075V7.50592C9.4893 7.42643 10.7882 7.08372 10.7882 6.67332C10.7882 6.26292 9.4893 5.9202 7.76075 5.84032Z" fill="white"/>
</g>
<defs>
<clipPath id="clip0_189_2472">
<rect width="12.5913" height="12.5913" fill="white" transform="translate(0.70874 0.413086)"/>
</clipPath>
</defs>
</svg>
