<?xml version="1.0" encoding="UTF-8" standalone="no"?>
<!-- Uploaded to: SVG Repo, www.svgrepo.com, Generator: SVG Repo Mixer Tools -->

<svg
   width="20"
   height="20"
   viewBox="0 0 0.8 0.8"
   version="1.1"
   id="svg1"
   sodipodi:docname="usdt-svgrepo-com.svg"
   inkscape:version="1.4.2 (ebf0e940d0, 2025-05-08)"
   xmlns:inkscape="http://www.inkscape.org/namespaces/inkscape"
   xmlns:sodipodi="http://sodipodi.sourceforge.net/DTD/sodipodi-0.dtd"
   xmlns="http://www.w3.org/2000/svg"
   xmlns:svg="http://www.w3.org/2000/svg">
  <defs
     id="defs1" />
  <sodipodi:namedview
     id="namedview1"
     pagecolor="#ffffff"
     bordercolor="#000000"
     borderopacity="0.25"
     inkscape:showpageshadow="2"
     inkscape:pageopacity="0.0"
     inkscape:pagecheckerboard="0"
     inkscape:deskcolor="#d1d1d1"
     inkscape:zoom="39.229882"
     inkscape:cx="11.8787"
     inkscape:cy="10.476707"
     inkscape:window-width="1910"
     inkscape:window-height="1129"
     inkscape:window-x="0"
     inkscape:window-y="35"
     inkscape:window-maximized="1"
     inkscape:current-layer="svg1" />
  <g
     fill="none"
     fill-rule="evenodd"
     id="g1"
     transform="scale(0.025)">
    <circle
       cx="16"
       cy="16"
       r="16"
       fill="#26a17b"
       id="circle1" />
    <path
       fill="#ffffff"
       d="m 17.922,17.383 v -0.002 c -0.11,0.008 -0.677,0.042 -1.942,0.042 -1.01,0 -1.721,-0.03 -1.971,-0.042 v 0.003 c -3.888,-0.171 -6.79,-0.848 -6.79,-1.658 0,-0.809 2.902,-1.486 6.79,-1.66 v 2.644 c 0.254,0.018 0.982,0.061 1.988,0.061 1.207,0 1.812,-0.05 1.925,-0.06 v -2.643 c 3.88,0.173 6.775,0.85 6.775,1.658 0,0.81 -2.895,1.485 -6.775,1.657 m 0,-3.59 v -2.366 h 5.414 V 7.819 H 8.595 v 3.608 h 5.414 v 2.365 C 9.609,13.994 6.3,14.866 6.3,15.91 c 0,1.044 3.309,1.915 7.709,2.118 v 7.582 h 3.913 v -7.584 c 4.393,-0.202 7.694,-1.073 7.694,-2.116 0,-1.043 -3.301,-1.914 -7.694,-2.117"
       id="path1" />
  </g>
</svg>
